<?xml version="1.0" standalone="no"?>
<!DOCTYPE svg PUBLIC "-//W3C//DTD SVG 20010904//EN"
 "http://www.w3.org/TR/2001/REC-SVG-20010904/DTD/svg10.dtd">
<svg version="1.0" xmlns="http://www.w3.org/2000/svg"
 width="710.000000pt" height="99.000000pt" viewBox="0 0 710.000000 99.000000"
 preserveAspectRatio="xMidYMid meet">
<metadata>
Created by potrace 1.13, written by Peter Selinger 2001-2015
</metadata>
<g transform="translate(0.000000,99.000000) scale(0.100000,-0.100000)"
fill="#000000" stroke="none">
<path d="M73 930 c-65 -39 -68 -56 -68 -340 0 -238 1 -257 20 -290 44 -75 -5
-70 825 -70 820 0 769 -4 810 63 17 27 20 51 20 155 l0 122 330 0 c323 0 330
0 330 -20 0 -25 9 -25 88 0 35 11 70 20 77 20 10 0 14 -31 17 -136 l3 -136 37
-34 38 -34 917 -2 c505 0 932 0 948 1 39 3 71 25 95 64 17 27 20 51 20 155 l0
122 336 0 c291 0 335 -2 331 -15 -10 -25 11 -27 86 -6 40 12 76 21 80 21 4 0
7 -55 7 -122 0 -104 3 -128 20 -155 40 -67 -9 -63 807 -64 821 -1 782 -4 823
64 18 30 20 52 20 300 l0 268 -39 42 -40 42 -752 3 c-831 3 -778 7 -819 -61
-17 -27 -20 -51 -20 -159 0 -71 -4 -128 -8 -128 -5 0 -42 11 -82 25 -40 14
-75 25 -76 25 -1 0 -4 -10 -6 -22 l-3 -23 -332 -3 -333 -2 0 125 c0 142 -10
173 -63 205 -31 19 -57 20 -973 20 -939 0 -941 0 -968 -21 -48 -38 -56 -67
-56 -209 0 -71 -1 -130 -3 -130 -1 0 -38 13 -80 30 -43 16 -82 30 -88 30 -5 0
-9 -11 -9 -25 l0 -25 -330 0 -330 0 0 126 c0 111 -3 131 -21 161 -41 66 -2 63
-816 63 -714 0 -739 -1 -770 -20z"/>
</g>
</svg>
